<svg width="100%" height="100%" id="svg" viewBox="0 0 1440 600" xmlns="http://www.w3.org/2000/svg" class="transition duration-300 ease-in-out delay-150"><defs><linearGradient id="gradient" x1="0%" y1="50%" x2="100%" y2="50%"><stop offset="5%" stop-color="#002bdc"></stop><stop offset="95%" stop-color="#32ded4"></stop></linearGradient></defs><path d="M 0,600 C 0,600 0,150 0,150 C 52.49344418303417,138.31926564276085 104.98688836606834,126.63853128552168 149,138 C 193.01311163393166,149.36146871447832 228.54589071876075,183.76514050067408 270,180 C 311.45410928123925,176.23485949932592 358.8295487588887,134.30090671178198 413,133 C 467.1704512411113,131.69909328821802 528.1359142456844,171.03123265219804 586,188 C 643.8640857543156,204.96876734780196 698.6267942583734,199.57416267942585 735,179 C 771.3732057416266,158.42583732057415 789.3569087208225,122.6721166300986 839,122 C 888.6430912791775,121.3278833699014 969.9455708583362,155.73737080017978 1024,156 C 1078.0544291416638,156.26262919982022 1104.8608078458328,122.37840016918238 1147,112 C 1189.1391921541672,101.62159983081762 1246.6111977583334,114.74902852309074 1298,125 C 1349.3888022416666,135.25097147690926 1394.6944011208334,142.62548573845464 1440,150 C 1440,150 1440,600 1440,600 Z" stroke="none" stroke-width="0" fill="url(#gradient)" fill-opacity="0.4" class="transition-all duration-300 ease-in-out delay-150 path-0"></path><defs><linearGradient id="gradient" x1="0%" y1="50%" x2="100%" y2="50%"><stop offset="5%" stop-color="#002bdc"></stop><stop offset="95%" stop-color="#32ded4"></stop></linearGradient></defs><path d="M 0,600 C 0,600 0,300 0,300 C 36.915461682835925,292.5540590552222 73.83092336567185,285.1081181104443 122,289 C 170.16907663432815,292.8918818895557 229.59176822014854,308.1215866134447 285,306 C 340.40823177985146,303.8784133865553 391.80200375373397,284.4055354357768 444,282 C 496.19799624626603,279.5944645642232 549.2002167649158,294.2562716434481 591,309 C 632.7997832350842,323.7437283565519 663.3971291866029,338.5693779904306 703,322 C 742.6028708133971,305.4306220095694 791.2112664886728,257.46621639482936 844,270 C 896.7887335113272,282.53378360517064 953.7578048587063,355.5657564302519 1013,355 C 1072.2421951412937,354.4342435697481 1133.7575140765023,280.27075788416295 1176,253 C 1218.2424859234977,225.72924211583705 1241.2121388352853,245.35121203309632 1282,261 C 1322.7878611647147,276.6487879669037 1381.3939305823574,288.32439398345184 1440,300 C 1440,300 1440,600 1440,600 Z" stroke="none" stroke-width="0" fill="url(#gradient)" fill-opacity="0.53" class="transition-all duration-300 ease-in-out delay-150 path-1"></path><defs><linearGradient id="gradient" x1="0%" y1="50%" x2="100%" y2="50%"><stop offset="5%" stop-color="#002bdc"></stop><stop offset="95%" stop-color="#32ded4"></stop></linearGradient></defs><path d="M 0,600 C 0,600 0,450 0,450 C 56.8521769013191,422.072431203574 113.7043538026382,394.144862407148 165,398 C 216.2956461973618,401.855137592852 262.0347616907664,437.4929815749821 298,452 C 333.9652383092336,466.5070184250179 360.1565994342965,459.8832112929235 406,462 C 451.8434005657035,464.1167887070765 517.338840572048,474.9741732533241 567,474 C 616.661159427952,473.0258267466759 650.4880382775119,460.2200956937799 703,463 C 755.5119617224881,465.7799043062201 826.7090063179043,484.1454439715562 875,473 C 923.2909936820957,461.8545560284438 948.675936450871,421.1981284199952 997,413 C 1045.324063549129,404.8018715800048 1116.5872478786118,429.0620423484628 1169,442 C 1221.4127521213882,454.9379576515372 1254.9750720346824,456.5537021861535 1297,456 C 1339.0249279653176,455.4462978138465 1389.5124639826588,452.72314890692326 1440,450 C 1440,450 1440,600 1440,600 Z" stroke="none" stroke-width="0" fill="url(#gradient)" fill-opacity="1" class="transition-all duration-300 ease-in-out delay-150 path-2"></path></svg>